<?xml version="1.0" encoding="UTF-8"?>
<svg xmlns="http://www.w3.org/2000/svg" viewBox="0 0 1024 1024" width="1024" height="1024">
  <!-- TFB Shield + Plant Logo (potrace vectorized) -->
  
  <!-- Shield body -->
  <g fill="#193654" stroke="none">
    <path d="M 0.00 1024.00 l 0.00 2048.00 1024.00 2048.00 2048.00 2048.00 2048.00 1024.00 2048.00 0.00 1024.00 0.00 0.00 0.00 0.00 1024.00 z m 1035.90 511.60 c 1038.80 512.40 1046.40 516.10 1052.80 519.70 41.70 2070.10 44.90 2071.90 55.60 2077.60 134.50 2120.90 241.10 2159.00 327.20 2172.70 297.00 2152.50 306.50 2154.60 309.70 2155.80 35.50 2057.90 47.20 2070.20 53.30 2086.40 l 34.30 2087.50 34.60 2277.50 c 34.90 2464.70 34.70 2478.70 31.80 2497.00 -3.30 2270.50 -4.20 2276.10 -4.90 2280.00 -3.50 2069.50 -6.40 2081.80 -10.20 2095.00 -35.50 2179.60 -110.70 2278.00 -225.40 2366.70 -241.10 2350.60 -280.10 2377.60 -305.30 2393.00 -111.00 2123.00 -114.00 2124.70 -136.00 2136.80 -50.70 2077.50 -60.00 2082.30 -68.50 2086.60 l -36.00 2066.50 -45.00 2066.50 c -53.90 2066.50 -54.30 2066.40 -65.00 2061.20 -26.10 2039.70 -37.50 2033.70 -45.50 2029.30 -33.50 2030.10 -42.00 2025.40 -44.50 2024.00 -46.70 2022.10 -105.60 1983.40 -129.50 1964.70 -149.90 1944.50 -170.30 1926.70 -200.00 1897.60 -119.80 1940.80 -153.00 1900.20 -174.20 1866.90 -121.40 1887.00 -141.40 1831.10 -147.00 1770.20 -63.10 1864.60 -63.30 1808.80 -63.10 1671.60 l -0.50 1656.50 2.10 1650.40 c 7.40 1638.00 16.70 1627.20 27.10 1621.30 31.20 2015.30 40.00 2012.90 54.40 2010.60 90.20 2030.20 165.50 2007.00 237.00 1975.70 228.90 1974.60 282.70 1947.70 302.50 1936.50 134.20 1978.20 134.10 1978.20 146.50 1978.10 55.50 2025.50 61.00 2026.20 63.90 2027.10 z" />
    <path d="M 1002.50 577.70 c 980.00 590.70 945.80 608.50 924.00 618.60 -95.40 2096.70 -132.80 2112.70 -140.00 2115.30 -64.20 2075.40 -72.60 2078.60 -80.00 2081.40 -42.60 2064.20 -77.60 2075.90 -95.00 2080.50 -82.00 2074.90 -89.40 2076.90 -93.00 2077.90 -30.60 2056.40 -58.00 2062.60 -78.30 2066.40 -73.50 2064.20 -83.50 2066.30 -84.00 2066.60 -23.60 2053.40 -23.50 2406.50 -22.20 2424.10 1.80 2443.40 5.30 2460.50 13.60 2487.30 35.20 2185.30 85.40 2255.70 163.00 2324.90 164.60 2270.70 164.70 2270.80 178.40 2281.80 48.10 2088.00 59.30 2096.40 80.60 2111.10 71.70 2100.30 98.10 2117.30 113.50 2126.10 68.50 2091.50 75.80 2095.90 78.10 2097.30 18.60 2059.10 20.70 2060.30 21.10 2060.30 5.20 2050.70 6.70 2051.50 8.10 2052.60 4.70 2050.90 11.20 2054.50 17.70 2057.90 l 26.20 2062.30 27.40 2059.10 c 28.10 2056.90 28.70 2056.30 29.20 2057.20 2.70 2047.40 4.50 2046.70 14.30 2040.90 15.30 2041.20 18.40 2039.50 19.50 2039.00 8.20 2043.70 9.60 2042.60 10.30 2041.80 4.00 2044.80 5.70 2043.80 7.00 2043.50 7.40 2045.00 7.60 2041.70 4.80 2029.20 -2.20 2016.00 -3.70 2007.30 -3.10 2006.70 -3.40 2022.60 -2.90 2024.40 -0.70 2034.60 5.20 2067.10 7.10 2075.10 9.50 2083.70 6.30 2073.90 7.40 2075.10 8.40 2075.30 4.20 2051.20 27.50 2037.90 45.60 2026.20 76.30 2002.10 121.40 1969.00 142.70 1950.60 100.90 1974.00 105.80 1969.80 110.50 1965.80 34.30 2018.80 70.90 1981.30 89.70 1957.90 87.80 1956.00 102.60 1935.60 109.10 1925.50 45.40 1982.80 48.60 1977.10 57.20 1958.70 45.10 1961.50 54.20 1928.40 56.90 1891.00 31.10 1925.00 31.60 1566.00 30.70 1566.00 -0.60 1675.50 -29.10 1670.10 -41.50 1667.50 -57.80 2036.70 -79.60 2031.30 -104.60 2024.40 -69.80 2030.30 -106.60 2018.40 -113.20 2016.00 -57.00 2029.20 -63.10 2027.00 -76.00 2022.20 -61.10 2025.50 -89.00 2013.20 -134.30 1990.50 -130.70 1989.10 -140.30 1983.90 -168.70 1967.60 -63.70 2013.40 -67.50 2011.50 -68.20 2011.60 -9.20 2043.90 -18.80 2049.10 -29.80 2055.50 z m 216.90 2237.60 c 218.10 2249.20 217.80 2297.20 216.40 2305.90 -1.20 2120.40 -2.10 2126.30 -2.60 2129.40 -6.50 2088.60 -14.70 2110.10 -29.90 2133.50 -37.20 2134.80 -58.00 2155.10 -73.00 2164.40 -46.10 2092.60 -48.70 2094.30 -51.00 2095.80 -10.10 2054.50 -29.50 2064.50 -30.50 2064.50 -25.10 2060.70 -27.20 2061.60 -29.60 2062.60 -13.10 2053.60 -37.20 2060.70 -38.20 2059.70 -34.60 2056.50 -25.20 2027.20 -16.10 2004.60 28.30 1967.10 56.90 1918.90 71.30 1903.50 56.40 1954.20 56.60 1954.20 56.00 1956.20 1.50 2048.70 -0.20 2051.20 -1.90 2053.00 -5.40 2055.30 -7.20 2057.70 -7.70 2058.80 -5.20 2056.10 -12.70 2067.60 -16.40 2072.40 -14.20 2069.20 -16.80 2073.20 -18.40 2076.00 -7.40 2059.60 -9.30 2062.60 -10.00 2063.40 -5.70 2056.40 -25.20 2095.70 -27.60 2102.00 -23.90 2096.60 -25.40 2100.00 -26.70 2103.10 -4.60 2058.80 -6.10 2062.80 -6.50 2064.60 -4.30 2061.40 -4.10 2060.90 -6.00 2065.10 -3.70 2058.20 -4.40 2060.40 -4.40 2061.20 -1.70 2053.80 -2.20 2054.90 -2.80 2055.50 -2.30 2051.60 -5.20 2064.60 -4.40 2065.80 -3.00 2063.90 -2.20 2064.30 -1.60 2064.30 3.20 2048.90 19.40 2044.00 21.40 2043.00 20.60 2041.60 22.80 2040.90 24.70 2040.50 6.90 2046.00 9.60 2044.80 10.90 2043.80 7.20 2044.30 8.80 2043.50 9.40 2043.50 5.70 2046.10 21.50 2037.50 31.80 2030.70 37.50 2026.60 58.60 2008.90 58.60 2007.20 30.30 2022.20 32.10 2020.00 34.30 2017.60 14.10 2032.10 27.80 2007.40 32.90 1990.80 30.20 1991.70 32.10 1985.60 33.10 1982.30 8.60 2020.60 10.20 2005.00 10.70 1973.00 6.80 1969.70 6.70 1953.30 6.20 1950.00 l -1.10 2005.50 -4.60 2005.40 c -6.50 2005.40 -8.50 2005.70 -9.10 2006.10 -5.80 2049.70 -16.50 2051.60 -20.70 2051.60 -18.10 2050.90 -20.60 2051.50 -21.80 2052.30 -6.80 2050.20 -10.50 2051.20 -13.80 2051.60 -11.50 2050.50 -14.40 2051.20 -14.70 2051.60 -6.80 2049.80 -9.70 2050.80 -13.00 2051.70 -15.40 2052.70 -21.90 2055.00 -27.30 2057.60 -23.50 2056.50 -26.30 2057.30 -27.10 2057.00 -7.10 2049.40 -7.70 2049.60 -7.70 2050.20 -1.40 2049.00 -3.30 2050.20 -5.60 2051.20 -6.60 2051.60 -10.50 2053.60 -13.10 2055.20 -11.40 2054.00 -14.50 2055.60 -15.80 2056.00 -12.20 2053.20 -33.80 2068.00 -42.90 2076.20 -42.50 2078.50 -54.30 2092.10 -58.60 2098.70 -29.30 2084.50 -39.20 2104.40 -40.50 2110.30 -18.30 2085.90 -19.10 2088.60 -19.90 2090.30 -2.70 2055.60 -3.80 2059.60 -4.50 2062.70 -3.90 2063.10 -6.00 2064.80 -4.90 2058.70 -1.60 2045.20 1.70 2034.20 3.60 2030.00 6.80 2026.20 7.40 2024.30 7.40 2023.80 1.40 2043.30 3.30 2038.90 5.60 2034.10 18.00 2009.10 42.00 1984.70 75.00 1966.20 80.70 1970.40 105.30 1960.30 117.80 1956.70 51.10 2027.60 57.20 2025.80 60.50 2024.80 21.30 2041.70 33.20 2039.20 39.50 2038.50 28.80 2042.20 32.80 2041.60 35.00 2041.10 16.50 2045.00 16.20 2044.70 17.20 2053.20 z m -321.80 2128.00 c -300.40 2132.90 -295.10 2134.70 -279.00 2142.40 68.60 2074.70 85.40 2090.40 96.50 2112.40 57.90 2106.30 59.70 2110.80 60.60 2114.50 7.30 2066.40 8.40 2071.10 9.20 2075.00 4.60 2068.80 4.50 2097.60 2.00 2109.50 -1.30 2103.90 -2.50 2108.00 -3.00 2108.00 -3.20 2057.00 -3.80 2055.30 -4.20 2053.30 -2.20 2039.50 -8.00 2024.50 -11.70 2017.50 -11.80 2018.20 -14.10 2014.00 -15.20 2011.90 -6.10 2036.50 -9.80 2030.60 -13.30 2025.40 -14.40 2025.50 -15.50 2022.60 -10.60 2028.00 3.30 2047.70 11.80 2061.00 13.10 2065.60 15.80 2073.70 16.70 2075.50 17.40 2076.30 2.70 2052.80 3.60 2054.90 4.00 2056.70 2.30 2054.40 3.20 2056.40 4.00 2057.00 2.70 2052.90 3.60 2054.90 3.90 2056.70 2.50 2055.70 5.00 2058.80 6.10 2057.70 5.40 2052.10 6.80 2029.50 6.20 2019.10 1.40 2002.00 0.90 1999.40 -3.80 1986.30 -11.80 2003.80 -16.50 1995.80 -25.80 1986.30 -26.90 2006.80 -39.90 1996.00 -41.50 1996.00 -22.10 2030.20 -23.60 2029.40 -24.90 2028.30 -7.10 2043.30 -20.80 2036.30 -24.30 2035.50 -22.60 2037.00 -25.20 2036.10 -26.70 2035.30 -7.30 2045.10 -9.10 2044.50 -9.80 2044.50 -4.80 2046.60 -6.80 2045.90 -8.50 2045.10 -8.20 2044.80 -23.10 2041.00 -26.00 2041.00 -23.20 2042.50 -23.60 2043.40 -24.20 2047.60 -4.30 2064.30 -3.10 2110.20 -1.20 2112.50 1.90 2107.90 2.80 2111.10 3.50 2114.40 3.90 2064.60 12.20 2082.10 19.10 2091.10 21.10 2089.30 21.70 2090.50 20.20 2090.50 1.90 2054.40 -7.00 2041.80 -10.60 2034.90 -17.80 2020.80 -22.00 2009.00 -23.30 2002.00 -12.10 2007.70 -13.40 1995.10 -13.50 1984.60 -3.90 1997.90 -2.00 1977.00 -0.80 1977.00 3.60 2013.90 6.10 2014.40 8.70 2015.00 z m 260.90 2051.70 c 260.90 2052.20 256.60 2055.90 251.30 2060.00 -38.70 2079.20 -67.00 2118.50 -88.50 2165.80 -83.20 2167.00 -90.40 2185.20 -92.90 2193.00 -15.00 2086.50 -16.60 2091.20 -17.60 2093.90 -4.70 2061.10 -5.50 2064.10 -5.50 2065.00 -1.90 2055.60 -2.60 2058.10 -3.50 2060.20 -2.50 2055.70 -5.00 2064.40 -7.10 2072.90 -7.70 2075.80 -9.70 2083.00 -10.10 2083.30 -6.40 2065.70 -1.30 2040.90 1.80 2033.10 6.80 2016.30 7.60 2013.30 8.30 2010.60 5.20 2028.40 10.60 2012.40 12.40 2010.50 11.00 2016.50 11.40 2015.30 11.40 2014.40 0.90 2044.50 2.00 2041.30 3.30 2038.40 3.70 2038.00 6.40 2031.50 8.50 2026.60 10.90 2022.00 15.30 2013.10 21.90 2001.90 17.00 2014.30 19.80 2009.50 21.90 2005.80 11.60 2027.90 16.20 2020.90 23.10 2011.70 32.30 2001.90 43.40 1989.70 55.00 1980.70 50.00 1997.10 52.60 1995.50 52.60 1997.20 z m -184.00 2107.00 c -178.40 2112.60 -172.80 2118.70 -171.50 2120.80 14.10 2064.20 11.80 2062.40 5.90 2056.50 -11.50 2037.70 -17.30 2032.10 -19.60 2030.10 -17.70 2031.10 -18.90 2029.50 -17.20 2029.50 -3.50 2042.10 1.60 2046.60 7.10 2052.10 z m 96.90 2067.20 c 95.70 2083.00 95.90 2092.70 97.50 2110.60 1.20 2097.60 0.10 2101.20 -5.50 2112.10 -6.90 2070.30 -7.60 2072.40 -7.60 2073.40 -1.50 2054.20 -3.10 2058.20 -7.90 2069.20 -7.20 2066.10 -8.50 2069.70 -9.30 2072.50 -3.80 2058.70 -4.50 2060.20 -4.50 2059.20 -1.70 2050.20 -0.40 2045.10 1.20 2039.70 5.40 2027.90 6.80 2024.00 9.80 2016.80 14.20 2011.40 14.30 2010.90 13.70 2006.50 5.10 2015.90 5.10 1985.60 6.60 1975.50 0.70 1991.80 1.40 1987.00 1.40 1986.60 1.50 2037.00 1.80 2037.00 2.10 2037.30 1.00 2048.40 0.70 2056.40 0.00 2065.90 z m -99.20 2054.10 c -95.20 2060.30 -79.60 2090.70 -79.60 2092.50 19.60 2086.80 20.50 2089.10 21.60 2091.40 3.10 2055.20 4.00 2057.80 4.00 2058.70 2.00 2054.60 2.40 2056.20 3.00 2057.20 2.10 2053.50 7.40 2073.80 8.40 2079.70 8.20 2080.50 8.10 2080.60 3.70 2078.40 -6.70 2048.60 -6.80 2048.50 -4.60 2047.70 0.90 2044.80 1.20 2044.10 0.70 2041.40 1.00 2040.30 -4.40 2021.80 -5.80 2018.60 -7.90 2021.60 -8.80 2018.90 -9.50 2016.70 -2.70 2039.80 -3.60 2037.60 -4.10 2037.10 -2.50 2042.50 -2.90 2041.50 -2.90 2040.70 -0.90 2044.40 -3.10 2039.00 -6.50 2032.00 -6.40 2032.80 -7.00 2031.00 -7.00 2030.50 -1.40 2043.50 -2.50 2041.60 -3.90 2039.80 -3.90 2041.90 -5.00 2040.10 -5.00 2039.70 -2.50 2043.50 -4.30 2040.60 -6.50 2037.50 -6.20 2038.30 -8.00 2035.30 -8.00 2034.70 -4.00 2039.30 -2.30 2040.00 -0.60 2042.50 z m -18.00 2098.80 c -18.00 2100.30 -11.00 2106.80 -5.60 2110.30 27.90 2069.50 42.00 2077.10 45.00 2077.10 33.20 2065.60 33.60 2066.10 33.60 2066.70 1.00 2050.80 -3.20 2049.40 -13.40 2044.40 -28.10 2036.60 -33.00 2033.20 -42.20 2024.20 -33.40 2023.50 -34.70 2021.60 -32.60 2021.60 -4.20 2040.70 -3.80 2041.10 -3.80 2041.60 z m -116.50 2073.60 c -94.80 2075.00 -102.10 2075.80 -135.20 2075.60 -43.20 2049.90 -52.70 2050.20 -53.60 2051.10 -35.50 2049.70 -36.00 2052.60 -36.00 2055.50 -1.10 2060.80 -2.40 2058.90 -3.40 2051.00 l -2.90 2038.90 1.90 2038.80 c 4.50 2038.70 14.10 2038.30 23.20 2037.90 30.40 2046.70 38.70 2046.60 39.80 2046.70 19.60 2047.70 25.50 2048.20 31.50 2048.60 z m 63.50 2058.50 c 89.00 2066.60 112.00 2079.80 127.40 2095.40 77.50 2098.70 85.70 2110.10 93.50 2126.30 39.00 2108.90 47.10 2138.00 47.10 2152.10 17.50 2113.80 18.10 2115.80 19.10 2116.70 3.80 2055.80 14.60 2071.90 18.10 2078.50 19.20 2077.60 21.10 2083.90 20.00 2083.90 3.20 2059.40 1.80 2057.30 0.40 2054.60 -4.50 2040.60 -6.00 2037.80 -6.50 2037.00 -5.50 2038.30 -13.00 2025.20 -13.50 2024.30 -10.40 2029.90 -11.80 2027.90 -13.30 2026.00 -5.60 2040.30 -6.50 2037.10 -8.50 2025.00 -6.00 2024.90 -7.90 2016.00 -9.40 2010.50 -6.90 2017.90 -7.80 2014.90 -9.10 2012.00 -5.70 2029.30 -8.10 2023.80 -10.30 2018.70 -7.50 2030.60 -10.20 2025.10 -11.40 2023.60 -7.20 2034.30 -8.10 2032.60 -8.10 2032.00 -2.00 2043.60 -3.20 2041.60 -4.70 2039.60 -4.30 2041.50 -7.10 2037.60 -9.00 2034.80 -10.80 2032.70 -22.70 2020.70 -30.90 2014.60 -28.20 2020.70 -33.50 2016.60 -36.60 2014.30 -15.00 2036.70 -18.40 2034.50 -19.50 2034.20 -8.50 2042.80 -9.40 2042.10 -9.40 2041.60 -1.90 2045.90 -2.50 2045.50 -3.10 2045.50 -1.90 2047.10 -5.20 2045.70 -8.50 2044.10 -10.60 2043.30 -14.00 2042.00 -15.00 2042.00 -8.60 2045.00 -9.60 2044.60 -9.90 2044.10 -2.50 2046.70 -4.60 2046.00 -6.90 2045.60 -7.00 2046.10 -10.00 2045.20 -11.50 2044.50 -8.20 2045.20 -12.00 2044.10 -15.20 2043.40 -11.50 2044.80 -13.90 2043.90 -13.60 2043.50 -4.70 2045.20 2.50 2046.30 8.30 2048.10 z m -86.50 2075.90 c -86.50 2077.80 -85.80 2080.20 -85.00 2081.30 2.20 2054.40 3.20 2057.80 3.60 2060.90 2.50 2058.60 3.40 2062.00 4.00 2063.10 2.60 2056.70 3.50 2059.60 3.90 2062.10 2.30 2057.00 3.30 2060.30 4.10 2062.00 3.40 2058.30 9.10 2072.30 11.90 2079.60 10.40 2073.90 11.50 2075.90 12.10 2076.60 2.90 2053.30 3.70 2055.00 4.10 2056.40 2.80 2055.20 16.20 2075.60 22.90 2084.00 26.90 2087.50 43.10 2102.70 47.30 2104.90 27.70 2073.50 29.60 2074.70 30.40 2075.40 7.00 2052.90 16.80 2058.00 25.80 2061.60 26.50 2061.00 30.90 2063.10 31.50 2063.60 10.40 2053.10 11.70 2053.50 12.90 2053.50 4.10 2048.90 7.00 2049.60 9.40 2050.50 8.80 2050.40 14.70 2051.80 19.40 2052.60 17.70 2051.80 22.70 2052.90 24.10 2053.40 12.50 2050.90 19.60 2051.60 26.90 2052.00 26.60 2050.10 29.00 2050.00 29.00 2048.90 13.20 2046.50 11.70 2043.20 9.90 2039.80 -5.00 2037.20 -8.00 2031.50 -9.90 2028.00 -13.50 2022.30 -34.60 1992.20 -45.40 1980.10 -47.50 1982.90 -73.60 1956.90 -76.30 1955.30 -39.10 2009.80 -40.30 2008.70 -40.30 2008.20 -2.80 2044.40 -1.50 2045.20 7.70 2052.40 25.70 2066.70 48.60 2092.50 63.10 2113.80 57.40 2114.00 62.30 2121.00 63.40 2122.40 11.90 2064.90 12.90 2066.40 12.90 2066.80 2.10 2051.80 3.10 2053.60 4.40 2055.30 4.50 2055.10 18.10 2082.00 17.60 2082.40 14.90 2078.90 -10.30 2076.60 -20.30 2075.20 -45.70 2043.30 -71.50 2036.40 -76.60 2033.80 -42.40 2036.20 -46.90 2034.10 -51.00 2032.10 -37.90 2030.00 -61.20 2004.80 -78.40 1969.20 -75.10 1960.30 -84.40 1932.90 -87.00 1919.90 -19.10 1991.00 -20.00 1987.20 -20.60 1985.30 -2.50 2037.60 -3.00 2034.40 -2.90 2032.50 l -0.80 2037.50 0.50 2041.50 c 1.30 2043.70 1.90 2047.10 2.00 2049.00 z m 268.00 2065.20 c 267.10 2068.40 265.70 2073.80 264.90 2077.20 -4.00 2063.50 -5.10 2066.30 -5.60 2066.30 -3.90 2054.30 -3.60 2051.20 -1.60 2044.70 2.00 2035.20 3.60 2029.80 4.60 2026.50 6.00 2028.60 6.90 2031.30 4.70 2039.30 z m -6.50 2077.70 c -7.10 2081.20 -8.00 2084.40 -8.50 2085.00 -2.40 2055.80 -3.10 2059.00 -3.50 2062.20 -2.30 2061.90 -4.10 2067.00 -4.70 2064.30 -3.60 2055.90 -0.60 2042.20 2.60 2030.30 7.40 2014.80 8.10 2017.40 6.70 2024.40 z m 248.30 2046.40 c 252.00 2046.30 252.10 2046.40 251.50 2049.10 2.80 2052.20 2.10 2056.70 1.50 2060.70 -4.30 2076.80 -14.10 2110.50 -22.00 2127.70 -25.20 2128.30 -28.80 2135.60 -30.60 2138.70 -22.10 2088.80 -23.40 2090.50 -35.60 2102.30 -43.90 2099.40 -68.80 2113.40 -93.30 2119.40 -79.20 2088.80 -93.30 2091.10 -102.50 2091.70 -40.00 2053.90 -46.20 2054.50 -48.20 2054.80 -18.90 2050.00 -18.70 2048.90 -11.60 2035.30 17.90 2003.80 36.00 1980.00 64.70 1952.30 72.90 1956.20 76.10 1953.50 81.40 1950.30 24.70 2028.50 23.10 2031.20 15.80 2037.10 -24.50 2070.30 -50.70 2099.40 -63.20 2119.70 -63.00 2119.30 -65.30 2123.50 -65.30 2124.00 -5.10 2057.80 -5.50 2058.20 -6.00 2058.20 -1.40 2048.90 -2.40 2050.40 -3.00 2052.30 -2.70 2053.30 -3.60 2055.00 -4.00 2055.20 -2.70 2052.10 -4.10 2054.40 -9.40 2065.10 -10.80 2067.70 -9.80 2069.00 -2.60 2067.70 7.70 2053.90 16.00 2052.60 23.40 2051.50 33.80 2042.90 43.80 2040.90 47.50 2039.50 30.40 2041.80 35.10 2040.10 39.40 2038.50 20.30 2040.60 40.50 2029.20 49.10 2022.30 52.50 2015.20 68.90 1994.70 76.60 1979.00 39.30 1998.00 41.10 1994.70 42.00 1993.30 5.00 2039.10 6.10 2036.90 6.50 2035.50 2.80 2041.60 3.70 2039.10 4.50 2037.50 8.90 2027.10 13.00 2013.40 18.10 1989.00 17.90 1985.40 20.00 1977.20 20.50 1976.10 7.10 2024.90 1.00 2023.80 -28.10 2023.60 -47.30 2041.90 -56.20 2042.40 -74.40 2044.30 -49.60 2051.10 -49.50 2050.20 -41.50 2048.40 9.30 2044.00 26.40 2043.20 48.80 2043.80 60.10 2046.00 71.20 2046.20 73.40 2046.10 z m -389.60 2050.20 c -387.60 2051.30 -383.50 2053.30 -380.50 2054.70 17.70 2056.50 22.60 2059.60 29.60 2065.00 24.10 2063.30 27.40 2065.60 28.00 2065.60 8.00 2053.10 9.00 2054.00 9.70 2055.10 2.90 2051.10 3.90 2052.00 4.30 2052.00 4.20 2050.00 37.80 2082.40 37.80 2084.40 35.70 2083.10 37.00 2084.80 40.30 2088.30 9.90 2059.50 19.00 2071.80 22.80 2078.60 20.60 2076.80 22.90 2080.90 23.40 2081.70 5.70 2057.80 7.80 2061.90 9.80 2066.00 6.70 2061.10 9.60 2066.50 11.00 2069.10 7.90 2062.60 9.70 2066.40 10.40 2068.60 4.70 2058.60 5.60 2060.80 6.00 2061.40 3.50 2054.90 8.10 2070.40 7.80 2072.10 5.60 2068.20 3.70 2064.50 1.60 2059.00 -17.10 2006.30 -34.70 1976.50 -55.80 1952.30 -59.90 1951.10 -80.10 1931.60 -85.60 1927.90 -35.90 2014.10 -40.00 2011.20 -43.00 2009.00 -12.00 2039.40 -16.10 2036.60 -18.00 2035.50 -10.90 2040.80 -14.10 2039.00 -16.00 2037.80 -8.90 2042.80 -13.90 2040.10 -18.00 2037.90 -19.40 2037.50 -19.80 2037.20 -18.10 2037.20 -6.30 2043.20 -4.10 2044.10 -2.10 2045.10 z m 191.30 2065.20 c 186.90 2085.40 183.00 2109.60 181.10 2127.50 -10.70 2115.20 -11.80 2124.00 -12.60 2129.80 -4.60 2082.60 -4.90 2088.10 -5.60 2126.50 -3.60 2127.30 -4.20 2141.90 -4.80 2142.50 -2.90 2084.80 -1.90 2016.90 -0.40 2001.50 1.80 1959.90 2.50 1951.60 2.70 1947.30 2.00 2021.50 3.00 2014.20 4.80 2004.50 3.90 2020.20 4.90 2013.90 5.60 2009.20 3.00 2029.30 3.80 2024.80 4.30 2024.00 2.40 2037.20 3.20 2032.40 3.90 2027.50 2.50 2032.50 3.40 2028.10 4.00 2027.50 2.60 2037.50 3.00 2035.80 3.00 2034.20 0.90 2042.60 1.40 2039.40 2.00 2037.10 2.90 2034.20 3.20 2033.70 3.70 2035.00 2.90 2042.80 2.20 2047.60 1.10 2052.60 z m 128.30 2050.30 c 128.30 2050.80 126.40 2051.70 124.10 2052.40 -9.60 2051.50 -24.30 2057.50 -29.00 2060.20 -25.60 2058.50 -28.10 2059.80 -30.30 2060.90 -11.20 2053.70 -12.80 2054.70 -19.40 2059.80 -17.10 2059.50 -20.80 2062.20 -22.20 2063.10 -12.10 2056.70 -25.30 2071.00 -29.40 2077.00 -23.10 2073.90 -26.10 2078.20 -27.80 2080.40 -9.60 2061.40 -11.80 2064.90 -13.20 2068.00 -11.80 2070.20 -15.10 2078.60 -16.40 2084.00 -10.40 2075.70 -12.00 2082.00 -13.50 2087.50 -5.70 2069.90 -8.60 2082.00 -9.20 2085.50 -5.60 2071.80 -6.00 2070.80 -6.50 2069.40 -2.00 2042.00 2.90 2020.00 8.30 2005.00 11.60 2000.50 22.10 1979.20 25.80 1973.60 32.80 1990.10 56.80 1970.30 82.30 1960.60 69.60 1992.60 74.50 1990.60 76.70 1989.50 15.40 2041.40 19.50 2040.80 19.50 2042.40 z m 17.00 2103.10 c -10.60 2117.40 -22.80 2125.40 -38.40 2139.60 -58.80 2087.60 -62.70 2091.00 -64.10 2092.10 -11.10 2057.60 -27.40 2076.10 -31.80 2082.00 -29.70 2083.20 -40.60 2098.80 -42.50 2102.30 -24.10 2084.50 -37.30 2111.30 -37.30 2112.30 -17.90 2085.40 -20.80 2091.70 -24.00 2097.70 -6.60 2062.30 -7.00 2063.70 -7.00 2064.50 -0.90 2052.00 -2.20 2056.80 -3.80 2061.80 -5.70 2067.20 -6.90 2071.90 -10.60 2089.60 -10.00 2089.60 -10.20 2089.60 -9.60 2079.50 -1.60 2043.60 -0.80 2038.70 0.00 2037.50 2.60 2035.90 3.40 2032.70 3.70 2030.00 2.00 2038.20 3.00 2034.40 3.90 2032.50 2.90 2037.60 4.00 2034.40 4.30 2032.50 2.60 2039.10 3.50 2036.60 4.20 2035.50 2.70 2041.40 3.60 2038.90 4.00 2037.00 2.40 2040.60 3.30 2038.10 3.90 2037.00 2.60 2041.40 3.50 2038.70 3.90 2036.50 3.50 2034.30 23.50 1996.30 32.30 1984.50 31.40 1989.10 33.30 1986.30 34.50 1984.20 7.50 2036.40 11.90 2031.40 27.30 2016.00 46.70 1998.70 68.40 1983.30 93.10 1972.50 75.70 1995.80 76.10 1997.20 70.50 2000.10 z m -172.50 2075.00 c -172.90 2081.80 -173.60 2088.00 -174.10 2088.90 -2.10 2062.80 -2.70 2067.90 -3.10 2073.20 -1.90 2064.60 -2.60 2068.90 -3.00 2068.90 -2.70 2057.60 -2.60 2048.10 -1.40 2039.80 0.60 2026.50 1.50 2019.40 2.10 2014.50 3.30 2022.10 4.00 2018.80 4.70 2018.80 3.00 2034.50 2.90 2040.00 2.50 2046.70 z m 50.70 2119.70 c 48.70 2122.70 46.20 2127.10 44.10 2131.00 -7.30 2060.70 -8.10 2062.00 -8.40 2062.30 -2.90 2052.00 -8.80 2061.70 -8.80 2062.50 -7.00 2060.00 -7.60 2061.10 -8.40 2061.90 -2.10 2051.30 -4.30 2054.90 -6.10 2058.40 -6.60 2059.50 -8.20 2061.60 -8.40 2060.80 -4.30 2049.60 10.90 2022.20 18.90 2012.30 26.40 2002.90 28.20 2002.50 25.20 2007.00 z m -65.30 2072.00 c -65.10 2073.30 -64.40 2076.50 -63.90 2079.30 1.90 2058.00 2.90 2062.10 3.50 2064.30 2.70 2059.20 3.50 2063.90 4.00 2067.50 2.40 2062.10 3.40 2067.00 4.00 2069.50 3.50 2064.10 4.90 2098.20 4.00 2105.00 1.60 2096.90 1.10 2093.30 0.70 2083.50 -2.40 2012.20 -5.80 1985.90 -9.90 1971.30 -9.80 1977.80 -10.70 1974.10 -10.70 1973.50 -2.00 2037.70 0.00 2038.70 0.50 2040.90 z m 14.40 2150.50 c 15.50 2168.80 16.00 2191.70 15.10 2186.00 -0.80 2074.70 -2.40 2053.70 -2.40 2045.00 -3.10 1998.90 -1.40 2000.90 -0.70 2012.50 z m 35.60 2064.00 c 35.60 2083.20 34.90 2088.50 33.60 2078.20 -3.20 2051.70 -2.30 2028.50 -0.60 2028.50 1.70 2014.30 2.00 2023.10 2.00 2033.80 z m 3.40 2100.70 c 5.70 2117.30 8.70 2134.80 11.20 2146.70 9.00 2099.90 9.50 2104.90 9.10 2106.00 0.70 2061.40 0.20 2060.50 -0.80 2056.30 -2.80 2041.30 -3.50 2037.00 -3.60 2034.80 -1.60 2036.30 -2.30 2033.40 -3.00 2032.00 -2.10 2040.10 -3.00 2035.40 -3.40 2031.00 -2.30 2033.10 -3.20 2027.30 -4.00 2024.60 -3.50 2030.20 -5.30 2008.50 -4.30 2008.50 -1.90 2021.40 -0.90 2026.70 0.00 2033.10 z m -25.10 2101.60 c -24.60 2107.10 -23.60 2114.20 -22.80 2117.50 3.10 2067.20 4.00 2073.30 4.30 2077.40 l 2.50 2069.00 1.10 2063.50 c -2.10 2050.50 -5.80 2019.80 -3.80 2021.70 -4.60 2006.50 -4.00 2011.20 -3.40 2016.60 z" />
  </g>
  
  <!-- Plant -->
  <g fill="#218752" stroke="none">
    <path d="M 0.00 1024.00 l 0.00 2048.00 1024.00 2048.00 2048.00 2048.00 2048.00 1024.00 2048.00 0.00 1024.00 0.00 0.00 0.00 0.00 1024.00 z m 1032.00 511.40 c 1039.60 513.20 1044.20 515.40 1060.50 524.70 58.10 2078.30 92.10 2096.00 117.50 2107.60 109.20 2103.60 114.50 2105.90 120.60 2108.30 34.50 2063.20 39.20 2065.20 42.00 2066.40 13.10 2053.60 19.20 2056.10 23.90 2057.90 18.20 2055.30 22.90 2057.20 24.00 2057.60 11.60 2052.50 15.00 2053.80 18.00 2054.90 10.50 2051.90 16.20 2054.00 20.00 2055.50 16.40 2054.20 22.20 2056.30 25.50 2057.20 16.30 2053.50 21.70 2055.30 25.00 2056.50 17.70 2054.10 29.40 2057.70 45.00 2062.20 51.40 2063.40 70.70 2068.30 96.00 2074.00 67.80 2064.80 76.10 2066.30 87.00 2067.90 43.50 2055.00 52.30 2058.70 62.30 2068.20 46.10 2071.50 52.00 2082.70 54.40 2094.70 17.50 2085.60 17.60 2441.80 16.20 2459.10 -1.20 2444.70 -3.80 2464.40 -5.90 2473.70 -8.00 2102.30 -11.20 2115.40 -12.00 2117.70 -6.40 2073.90 -7.30 2077.00 -8.00 2079.50 -4.40 2063.30 -7.80 2073.40 -11.00 2081.50 -14.30 2087.80 -16.90 2093.70 -24.10 2108.50 -25.70 2103.50 -31.70 2113.60 -47.80 2137.40 -48.40 2126.60 -53.60 2133.30 -74.30 2157.50 -60.30 2123.90 -91.50 2155.30 -112.20 2173.10 -74.70 2122.60 -78.30 2125.70 -78.60 2126.00 -8.30 2055.30 -11.00 2057.50 -14.00 2060.00 -9.00 2055.50 -11.70 2057.70 -12.00 2058.00 -10.20 2057.30 -45.60 2084.70 -60.00 2094.90 -63.60 2096.60 -105.80 2124.90 -112.00 2128.70 -61.60 2089.00 -68.20 2093.10 -72.80 2095.90 -19.40 2060.00 -23.40 2062.30 -23.70 2062.30 -9.20 2053.20 -10.60 2054.00 -12.00 2055.00 -4.60 2050.90 -8.90 2053.40 -12.80 2055.50 -13.50 2055.80 -20.10 2059.40 -24.20 2061.60 -18.60 2058.20 -28.20 2063.20 -35.80 2067.00 -34.10 2065.60 -35.60 2066.10 -42.70 2066.40 -26.00 2055.60 -30.60 2055.20 -33.10 2054.40 -16.60 2045.50 -36.30 2035.50 -53.30 2025.90 -43.50 2025.70 -47.10 2023.70 -49.60 2022.30 -23.00 2035.20 -37.90 2026.30 -50.00 2018.50 -70.70 2004.30 -81.20 1997.30 -95.00 1987.50 -61.50 2006.40 -69.70 2000.50 -71.10 1999.40 -19.50 2033.70 -22.10 2031.70 -24.00 2030.30 -11.00 2039.60 -35.00 2020.30 -38.40 2017.30 -34.10 2020.50 -41.30 2014.20 -48.50 2008.00 -23.10 2027.90 -33.90 2017.90 -40.00 2012.00 -30.00 2020.00 -37.50 2012.70 -40.70 2009.80 -21.40 2027.40 -38.90 2008.70 -49.90 1996.10 -52.60 1990.20 -79.50 1952.40 -93.30 1927.70 -71.30 1943.60 -75.20 1935.70 -83.10 1917.50 -27.30 1992.10 -35.20 1969.50 -38.00 1959.00 -20.00 1986.10 -20.60 1983.70 -23.40 1967.00 -10.40 1998.10 -11.50 1987.70 -12.50 1972.00 -5.50 1987.00 -5.40 1643.20 -4.00 1634.60 1.80 1662.40 8.10 1650.20 15.40 1643.00 22.80 2010.90 30.20 2006.60 39.90 2004.10 31.70 2031.80 36.00 2031.00 52.10 2028.50 31.40 2042.20 36.40 2041.30 38.80 2040.70 13.60 2045.40 17.40 2044.60 19.80 2044.10 50.20 2036.90 88.40 2025.60 127.20 2011.10 123.40 2011.10 128.30 2009.40 129.70 2008.90 14.70 2042.80 38.70 2033.20 44.80 2030.40 36.70 2033.10 39.30 2032.00 39.50 2032.00 5.90 2045.60 9.20 2044.20 12.90 2042.50 11.00 2043.30 16.70 2040.70 20.00 2039.20 20.30 2039.00 80.30 2008.90 85.80 2005.80 75.20 2010.20 79.50 2007.80 82.50 2006.10 15.10 2039.50 16.00 2039.00 30.50 2030.60 32.60 2029.30 35.90 2027.90 43.20 2026.30 30.30 2036.50 32.30 2036.50 39.00 2038.10 z" />
    <path d="M 1013.90 570.40 c 1005.80 575.40 1000.60 578.40 985.00 586.80 -32.50 2066.30 -35.80 2068.20 -36.40 2068.60 -10.10 2054.20 -58.30 2077.90 -72.50 2084.20 -73.80 2083.90 -82.30 2087.80 -84.00 2088.50 -20.60 2057.20 -24.50 2058.80 -27.50 2060.00 -11.50 2052.70 -16.20 2054.70 -19.00 2055.90 -13.20 2053.60 -17.10 2055.20 -19.00 2055.90 -10.40 2052.20 -12.90 2053.20 -14.00 2053.60 -12.10 2052.80 -26.90 2058.50 -29.00 2059.20 -24.90 2057.50 -32.50 2060.20 -40.50 2063.00 -25.00 2056.70 -34.20 2059.90 -37.50 2060.90 -23.80 2056.00 -29.90 2057.90 -34.00 2059.20 -21.50 2054.90 -24.60 2055.80 -36.50 2059.00 -27.10 2055.90 -31.80 2057.20 -33.50 2057.70 -12.10 2051.40 -16.40 2052.50 -20.00 2053.40 -13.10 2051.30 -21.60 2053.30 -28.50 2055.00 -31.60 2055.50 -50.60 2059.40 -63.50 2061.60 -48.30 2057.70 -52.80 2058.60 -54.50 2059.00 l -13.00 2050.60 -13.30 2236.00 c -13.60 2420.50 -13.50 2430.70 -10.30 2449.00 5.30 2274.20 13.00 2302.50 18.00 2316.00 27.60 2137.10 45.40 2169.20 71.20 2204.00 65.70 2161.80 85.60 2185.60 95.90 2196.40 44.30 2100.20 48.20 2104.60 48.40 2105.00 9.10 2058.70 46.80 2094.00 57.40 2103.10 59.10 2102.50 83.10 2121.80 94.70 2130.50 59.90 2095.50 98.00 2121.50 111.00 2129.50 79.40 2101.30 102.20 2114.90 106.50 2117.30 44.00 2074.20 49.10 2077.10 52.80 2079.20 23.20 2061.30 33.40 2066.20 34.10 2065.40 23.20 2058.60 22.70 2054.70 21.60 2050.30 -2.20 2034.90 -3.60 2028.40 -4.10 2024.80 -3.50 2029.90 -4.60 2024.30 -5.40 2021.00 -5.40 2022.90 -7.60 2009.20 -11.00 1982.00 -9.10 1989.80 -10.00 1982.80 -10.50 1979.00 -3.50 2021.00 -4.90 2007.30 -6.00 1992.50 -4.50 2000.30 -5.50 1988.50 -6.00 1981.80 -2.60 2015.10 -3.00 2005.00 -3.00 1999.30 -1.00 1991.00 -10.00 1947.00 -23.70 1914.90 -34.40 1910.00 -43.00 1894.90 -60.00 1872.20 -48.10 1968.40 -68.40 1947.60 -81.00 1938.20 -60.40 1990.80 -89.50 1974.40 -93.70 1975.20 -51.20 2020.00 -48.30 2023.10 -39.70 2030.20 21.20 2067.60 26.40 2072.90 43.80 2092.90 52.10 2103.90 78.70 2145.70 81.90 2158.60 49.10 2126.90 49.10 2126.90 43.80 2126.90 -11.10 2050.80 -34.10 2048.30 -41.00 2046.90 -71.60 2037.00 -100.30 2021.80 -120.80 1999.40 -99.60 1986.70 -115.90 1957.40 -124.30 1931.40 -47.00 1953.90 -49.40 1944.30 -53.60 1921.10 -14.50 1988.60 -15.20 1983.60 -15.20 1981.90 -1.50 2033.90 -1.30 2033.80 3.80 2033.10 27.70 2041.40 65.20 2042.90 85.50 2047.60 101.00 2056.10 109.10 2058.60 121.20 2063.80 69.50 2072.80 89.40 2089.60 107.20 2116.00 79.10 2122.80 88.90 2150.50 92.50 2177.60 27.50 2130.80 27.90 2132.00 32.20 2138.00 12.40 2073.00 18.20 2082.50 21.10 2088.70 16.50 2075.60 18.10 2077.80 18.60 2077.60 4.00 2052.80 4.70 2049.50 5.20 2045.70 4.80 2013.20 9.50 1982.70 14.20 1959.40 14.40 1957.00 16.20 1948.00 16.50 1946.60 4.30 2026.60 7.20 2016.00 10.50 2004.50 14.80 1995.00 23.70 1968.50 29.50 1955.80 25.50 1974.00 25.60 1973.20 24.60 1967.30 -0.10 2026.60 0.30 1995.50 2.10 1984.20 4.70 1971.60 12.90 1949.50 24.50 1932.20 43.10 1955.30 68.80 1935.00 105.70 1919.10 103.80 1973.70 124.50 1967.70 149.70 1963.50 80.70 2026.20 82.50 2026.40 83.40 2029.60 16.90 2054.50 17.30 2104.60 16.10 2116.50 -0.80 2128.50 -3.60 2143.80 -7.00 2156.80 -14.00 2114.50 -27.70 2139.40 -44.70 2157.20 -56.50 2136.00 -77.50 2150.30 -103.00 2160.50 -79.20 2098.10 -98.90 2103.60 -100.10 2102.40 -34.60 2057.20 -34.10 2053.70 -33.10 2049.70 7.50 2015.00 22.20 1979.70 36.70 1954.90 38.50 1957.80 41.60 1952.40 42.60 1950.80 11.60 2028.10 19.20 2016.20 22.70 2011.40 22.80 2013.80 28.20 2005.40 27.70 2004.90 11.30 2028.80 2.20 2035.30 -5.40 2041.80 -45.20 2084.30 -70.00 2120.30 -91.90 2168.60 -79.80 2168.00 -86.30 2186.40 -94.10 2211.80 -23.30 2115.60 -24.40 2120.00 -29.70 2143.00 -14.50 2106.60 -19.10 2132.40 -21.20 2150.50 -11.70 2116.20 -12.70 2124.50 -13.20 2129.50 -2.70 2071.40 -3.60 2078.40 -4.10 2082.00 -2.50 2067.10 -3.50 2088.10 -4.10 2110.30 -3.20 2131.70 -3.10 2135.20 -1.60 2136.70 2.00 2091.40 2.20 2091.40 2.80 2089.60 2.70 2046.70 5.70 2040.20 8.90 2033.40 11.70 2023.00 16.00 2016.00 27.50 1999.50 22.50 2011.40 23.70 2008.00 24.10 2004.70 5.10 2023.40 12.80 1999.20 21.50 1981.80 30.50 1966.70 56.20 1940.50 79.20 1928.90 94.50 1969.10 140.60 1961.30 182.30 1965.50 127.80 2028.10 133.40 2029.00 133.90 2029.40 14.70 2051.90 6.30 2089.80 -1.10 2111.30 -21.50 2132.50 -34.30 2157.30 -45.60 2171.50 -39.70 2120.00 -52.70 2131.60 -65.00 2139.70 -52.10 2090.20 -70.00 2097.30 -95.30 2102.30 -71.10 2074.40 -96.80 2076.20 -97.90 2075.10 -36.70 2049.30 -35.30 2045.60 -28.80 2032.70 13.90 2016.10 32.20 1989.70 44.70 1975.70 49.00 1980.90 69.90 1960.80 77.80 1954.90 46.60 2004.50 47.50 2003.40 45.60 2003.20 2.60 2041.20 -19.90 2052.50 -32.00 2060.60 -56.20 2079.30 -79.30 2100.60 -90.80 2115.90 -72.30 2122.50 -75.70 2127.90 -84.40 2146.10 -46.90 2129.80 -54.50 2153.30 -58.90 2182.80 -30.10 2150.70 -29.70 2163.60 -25.50 2192.30 3.00 2112.10 4.00 2119.50 4.50 2123.10 2.90 2068.10 4.30 2075.90 5.40 2082.00 4.20 2071.50 6.00 2081.40 7.10 2087.30 7.50 2088.90 13.20 2110.50 14.90 2110.50 14.20 2088.70 59.60 2060.10 93.40 2036.60 128.20 1964.20 172.60 1925.90 206.50 1888.90 141.80 1921.60 142.50 1920.80 151.00 1910.10 40.40 2000.60 52.80 1982.80 67.00 1960.10 43.80 1984.80 58.60 1955.70 61.50 1948.50 22.00 2004.40 23.20 2001.80 24.10 1999.70 5.70 2034.80 11.40 2018.70 14.00 2009.50 12.20 2012.80 13.10 2009.70 13.50 2008.30 2.80 2038.70 3.30 2036.60 5.90 2025.00 5.30 2025.70 6.70 2016.20 8.00 2004.50 4.90 2013.40 5.10 1955.70 4.90 1824.50 l 0.50 1666.00 -3.00 1665.30 c -4.90 1664.90 -16.20 1662.70 -28.00 1660.40 -44.70 2039.30 -74.90 2032.20 -92.40 2027.20 -71.30 2031.00 -76.10 2029.60 -78.00 2029.10 -21.50 2041.90 -50.70 2032.40 -62.60 2028.00 -56.70 2029.20 -61.60 2027.50 -63.00 2027.00 -20.20 2041.00 -56.20 2026.80 -65.80 2022.40 -57.70 2025.10 -60.30 2024.00 -60.50 2024.00 -6.10 2045.60 -12.30 2042.80 -27.70 2035.80 -38.30 2030.70 -90.40 2004.10 -102.50 1997.00 -87.40 2002.80 -94.60 1998.70 -96.50 1997.60 -17.90 2037.70 -20.40 2036.10 -21.50 2035.40 -8.50 2042.50 -9.80 2042.90 -19.10 2048.60 z m -106.60 2312.70 c -90.60 2316.90 -87.60 2317.90 -74.60 2324.20 47.30 2066.90 59.00 2075.00 68.20 2084.50 50.50 2087.80 60.00 2105.70 64.20 2125.90 29.60 2108.60 29.70 2141.10 28.20 2147.90 -0.50 2097.70 -1.30 2101.70 -1.60 2103.80 -2.90 2063.40 -4.00 2061.80 -10.00 2044.50 -14.30 2018.10 -34.00 1987.80 -47.70 1975.20 -46.10 1981.40 -53.40 1975.70 -54.00 1976.30 -14.60 2037.00 -9.70 2047.30 -3.50 2059.60 17.80 2084.30 23.80 2097.60 25.90 2104.20 18.70 2093.00 23.20 2112.80 22.20 2113.70 6.30 2081.30 -6.90 2076.50 -16.30 2071.80 -51.60 2025.50 -72.30 2000.20 -80.00 1970.40 -60.80 1962.10 -62.50 1927.30 -59.80 1910.60 -2.00 1971.40 -2.40 1971.40 14.40 1975.90 z" />
  </g>
</svg>
